<svg preserveAspectRatio="none" overflow="visible" style="display: block;" width="11.9998" height="11.9997" viewBox="0 0 11.9998 11.9997" fill="none" xmlns="http://www.w3.org/2000/svg">
<path id="shape" d="M10.2929 0.292893C10.6834 -0.0976107 11.3164 -0.0976107 11.707 0.292893C12.0975 0.683412 12.0975 1.31643 11.707 1.70696L7.41399 5.99992L11.707 10.2929C12.0972 10.6834 12.0974 11.3165 11.707 11.707C11.3165 12.0974 10.6834 12.0972 10.2929 11.707L5.99992 7.41399L1.70696 11.707C1.31641 12.0972 0.683313 12.0974 0.292893 11.707C-0.0975115 11.3165 -0.0973134 10.6834 0.292893 10.2929L4.58586 5.99992L0.292893 1.70696C-0.0976311 1.31643 -0.0976311 0.683418 0.292893 0.292893C0.683418 -0.0976311 1.31643 -0.0976311 1.70696 0.292893L5.99992 4.58586L10.2929 0.292893Z" fill="#393939"/>
</svg>
